<svg width="135" height="14" viewBox="0 0 135 14" fill="none" xmlns="http://www.w3.org/2000/svg">
<path d="M9.83496 7.75293C9.83496 8.64941 9.58008 9.33496 9.07031 9.80957C8.56641 10.2783 7.85156 10.5127 6.92578 10.5127C6.00586 10.5127 5.26758 10.2051 4.71094 9.58984C4.16016 8.96875 3.88477 8.125 3.88477 7.05859V6.0918C3.88477 5.06055 4.16309 4.2373 4.71973 3.62207C5.28223 3.00098 6.01758 2.69043 6.92578 2.69043C7.86328 2.69043 8.58398 2.93066 9.08789 3.41113C9.5918 3.8916 9.84375 4.56836 9.84375 5.44141H8.56055C8.56055 4.86133 8.41992 4.44824 8.13867 4.20215C7.86328 3.9502 7.45898 3.82422 6.92578 3.82422C6.375 3.82422 5.94141 4.02637 5.625 4.43066C5.30859 4.83496 5.15039 5.39746 5.15039 6.11816V7.11133C5.15039 7.81445 5.30859 8.36816 5.625 8.77246C5.94141 9.17676 6.375 9.37891 6.92578 9.37891C7.46484 9.37891 7.86914 9.25586 8.13867 9.00977C8.41406 8.76367 8.55176 8.34473 8.55176 7.75293H9.83496ZM1.81055 6.59277C1.81055 7.60059 2.04492 8.53516 2.51367 9.39648C2.98242 10.252 3.61816 10.9229 4.4209 11.4092C5.22949 11.8955 6.10254 12.1387 7.04004 12.1387C7.97754 12.1387 8.84766 11.8955 9.65039 11.4092C10.4531 10.9229 11.0889 10.252 11.5576 9.39648C12.0264 8.53516 12.2607 7.60059 12.2607 6.59277C12.2607 5.59668 12.0293 4.67383 11.5664 3.82422C11.1035 2.97461 10.4678 2.30664 9.65918 1.82031C8.85645 1.32812 7.9834 1.08203 7.04004 1.08203C6.10254 1.08203 5.22949 1.3252 4.4209 1.81152C3.6123 2.29199 2.97363 2.95996 2.50488 3.81543C2.04199 4.6709 1.81055 5.59668 1.81055 6.59277ZM0.799805 6.59277C0.799805 5.40918 1.07227 4.31055 1.61719 3.29688C2.16797 2.2832 2.92676 1.48633 3.89355 0.90625C4.86621 0.320312 5.91504 0.0273438 7.04004 0.0273438C8.16504 0.0273438 9.21094 0.320312 10.1777 0.90625C11.1445 1.48633 11.9004 2.2832 12.4453 3.29688C12.9961 4.31055 13.2715 5.40918 13.2715 6.59277C13.2715 7.74707 13.0078 8.82812 12.4805 9.83594C11.9531 10.8438 11.2031 11.6553 10.2305 12.2705C9.26367 12.8799 8.2002 13.1846 7.04004 13.1846C5.88574 13.1846 4.82227 12.8828 3.84961 12.2793C2.88281 11.6699 2.13281 10.8613 1.59961 9.85352C1.06641 8.8457 0.799805 7.75879 0.799805 6.59277ZM28.0635 13H19.6787V11.8311L24.1084 6.90918C24.7646 6.16504 25.2158 5.56152 25.4619 5.09863C25.7139 4.62988 25.8398 4.14648 25.8398 3.64844C25.8398 2.98047 25.6377 2.43262 25.2334 2.00488C24.8291 1.57715 24.29 1.36328 23.6162 1.36328C22.8076 1.36328 22.1777 1.59473 21.7266 2.05762C21.2812 2.51465 21.0586 3.15332 21.0586 3.97363H19.4326C19.4326 2.7959 19.8105 1.84375 20.5664 1.11719C21.3281 0.390625 22.3447 0.0273438 23.6162 0.0273438C24.8057 0.0273438 25.7461 0.34082 26.4375 0.967773C27.1289 1.58887 27.4746 2.41797 27.4746 3.45508C27.4746 4.71484 26.6719 6.21484 25.0664 7.95508L21.6387 11.6729H28.0635V13ZM37.8105 7.54199C37.8105 9.44629 37.4854 10.8613 36.835 11.7871C36.1846 12.7129 35.168 13.1758 33.7852 13.1758C32.4199 13.1758 31.4092 12.7246 30.7529 11.8223C30.0967 10.9141 29.7568 9.56055 29.7334 7.76172V5.59082C29.7334 3.70996 30.0586 2.3125 30.709 1.39844C31.3594 0.484375 32.3789 0.0273438 33.7676 0.0273438C35.1445 0.0273438 36.1582 0.469727 36.8086 1.35449C37.459 2.2334 37.793 3.59277 37.8105 5.43262V7.54199ZM36.1846 5.31836C36.1846 3.94141 35.9912 2.93945 35.6045 2.3125C35.2178 1.67969 34.6055 1.36328 33.7676 1.36328C32.9355 1.36328 32.3291 1.67676 31.9482 2.30371C31.5674 2.93066 31.3711 3.89453 31.3594 5.19531V7.79688C31.3594 9.17969 31.5586 10.2021 31.957 10.8643C32.3613 11.5205 32.9707 11.8486 33.7852 11.8486C34.5879 11.8486 35.1826 11.5381 35.5693 10.917C35.9619 10.2959 36.167 9.31738 36.1846 7.98145V5.31836ZM48.2783 13H39.8936V11.8311L44.3232 6.90918C44.9795 6.16504 45.4307 5.56152 45.6768 5.09863C45.9287 4.62988 46.0547 4.14648 46.0547 3.64844C46.0547 2.98047 45.8525 2.43262 45.4482 2.00488C45.0439 1.57715 44.5049 1.36328 43.8311 1.36328C43.0225 1.36328 42.3926 1.59473 41.9414 2.05762C41.4961 2.51465 41.2734 3.15332 41.2734 3.97363H39.6475C39.6475 2.7959 40.0254 1.84375 40.7812 1.11719C41.543 0.390625 42.5596 0.0273438 43.8311 0.0273438C45.0205 0.0273438 45.9609 0.34082 46.6523 0.967773C47.3438 1.58887 47.6895 2.41797 47.6895 3.45508C47.6895 4.71484 46.8867 6.21484 45.2812 7.95508L41.8535 11.6729H48.2783V13ZM58.0254 7.54199C58.0254 9.44629 57.7002 10.8613 57.0498 11.7871C56.3994 12.7129 55.3828 13.1758 54 13.1758C52.6348 13.1758 51.624 12.7246 50.9678 11.8223C50.3115 10.9141 49.9717 9.56055 49.9482 7.76172V5.59082C49.9482 3.70996 50.2734 2.3125 50.9238 1.39844C51.5742 0.484375 52.5938 0.0273438 53.9824 0.0273438C55.3594 0.0273438 56.373 0.469727 57.0234 1.35449C57.6738 2.2334 58.0078 3.59277 58.0254 5.43262V7.54199ZM56.3994 5.31836C56.3994 3.94141 56.2061 2.93945 55.8193 2.3125C55.4326 1.67969 54.8203 1.36328 53.9824 1.36328C53.1504 1.36328 52.5439 1.67676 52.1631 2.30371C51.7822 2.93066 51.5859 3.89453 51.5742 5.19531V7.79688C51.5742 9.17969 51.7734 10.2021 52.1719 10.8643C52.5762 11.5205 53.1855 11.8486 54 11.8486C54.8027 11.8486 55.3975 11.5381 55.7842 10.917C56.1768 10.2959 56.3818 9.31738 56.3994 7.98145V5.31836ZM69.2314 10.7588L72.8877 0.203125H74.7334L69.9873 13H68.4932L63.7559 0.203125H65.5928L69.2314 10.7588ZM77.9678 13H76.3418V3.49023H77.9678V13ZM76.21 0.967773C76.21 0.704102 76.2891 0.481445 76.4473 0.299805C76.6113 0.118164 76.8516 0.0273438 77.168 0.0273438C77.4844 0.0273438 77.7246 0.118164 77.8887 0.299805C78.0527 0.481445 78.1348 0.704102 78.1348 0.967773C78.1348 1.23145 78.0527 1.45117 77.8887 1.62695C77.7246 1.80273 77.4844 1.89062 77.168 1.89062C76.8516 1.89062 76.6113 1.80273 76.4473 1.62695C76.2891 1.45117 76.21 1.23145 76.21 0.967773ZM86.1152 10.4775C86.1152 10.0381 85.9482 9.69824 85.6143 9.45801C85.2861 9.21191 84.709 9.00098 83.8828 8.8252C83.0625 8.64941 82.4092 8.43848 81.9229 8.19238C81.4424 7.94629 81.085 7.65332 80.8506 7.31348C80.6221 6.97363 80.5078 6.56934 80.5078 6.10059C80.5078 5.32129 80.8359 4.66211 81.4922 4.12305C82.1543 3.58398 82.998 3.31445 84.0234 3.31445C85.1016 3.31445 85.9746 3.59277 86.6426 4.14941C87.3164 4.70605 87.6533 5.41797 87.6533 6.28516H86.0186C86.0186 5.83984 85.8281 5.45605 85.4473 5.13379C85.0723 4.81152 84.5977 4.65039 84.0234 4.65039C83.4316 4.65039 82.9688 4.7793 82.6348 5.03711C82.3008 5.29492 82.1338 5.63184 82.1338 6.04785C82.1338 6.44043 82.2891 6.73633 82.5996 6.93555C82.9102 7.13477 83.4697 7.3252 84.2783 7.50684C85.0928 7.68848 85.752 7.90527 86.2559 8.15723C86.7598 8.40918 87.1318 8.71387 87.3721 9.07129C87.6182 9.42285 87.7412 9.85352 87.7412 10.3633C87.7412 11.2129 87.4014 11.8955 86.7217 12.4111C86.042 12.9209 85.1602 13.1758 84.0762 13.1758C83.3145 13.1758 82.6406 13.041 82.0547 12.7715C81.4688 12.502 81.0088 12.127 80.6748 11.6465C80.3467 11.1602 80.1826 10.6357 80.1826 10.0732H81.8086C81.8379 10.6182 82.0547 11.0518 82.459 11.374C82.8691 11.6904 83.4082 11.8486 84.0762 11.8486C84.6914 11.8486 85.1836 11.7256 85.5527 11.4795C85.9277 11.2275 86.1152 10.8936 86.1152 10.4775ZM93.2432 8.22754H88.9541V6.90039H93.2432V8.22754ZM102.155 9.66016H96.7939L95.5898 13H93.8496L98.7363 0.203125H100.213L105.108 13H103.377L102.155 9.66016ZM97.3037 8.27148H101.654L99.4746 2.28613L97.3037 8.27148ZM109.96 8.22754H105.671V6.90039H109.96V8.22754ZM116.042 10.7588L119.698 0.203125H121.544L116.798 13H115.304L110.566 0.203125H112.403L116.042 10.7588ZM124.778 13H123.152V3.49023H124.778V13ZM123.021 0.967773C123.021 0.704102 123.1 0.481445 123.258 0.299805C123.422 0.118164 123.662 0.0273438 123.979 0.0273438C124.295 0.0273438 124.535 0.118164 124.699 0.299805C124.863 0.481445 124.945 0.704102 124.945 0.967773C124.945 1.23145 124.863 1.45117 124.699 1.62695C124.535 1.80273 124.295 1.89062 123.979 1.89062C123.662 1.89062 123.422 1.80273 123.258 1.62695C123.1 1.45117 123.021 1.23145 123.021 0.967773ZM132.926 10.4775C132.926 10.0381 132.759 9.69824 132.425 9.45801C132.097 9.21191 131.52 9.00098 130.693 8.8252C129.873 8.64941 129.22 8.43848 128.733 8.19238C128.253 7.94629 127.896 7.65332 127.661 7.31348C127.433 6.97363 127.318 6.56934 127.318 6.10059C127.318 5.32129 127.646 4.66211 128.303 4.12305C128.965 3.58398 129.809 3.31445 130.834 3.31445C131.912 3.31445 132.785 3.59277 133.453 4.14941C134.127 4.70605 134.464 5.41797 134.464 6.28516H132.829C132.829 5.83984 132.639 5.45605 132.258 5.13379C131.883 4.81152 131.408 4.65039 130.834 4.65039C130.242 4.65039 129.779 4.7793 129.445 5.03711C129.111 5.29492 128.944 5.63184 128.944 6.04785C128.944 6.44043 129.1 6.73633 129.41 6.93555C129.721 7.13477 130.28 7.3252 131.089 7.50684C131.903 7.68848 132.562 7.90527 133.066 8.15723C133.57 8.40918 133.942 8.71387 134.183 9.07129C134.429 9.42285 134.552 9.85352 134.552 10.3633C134.552 11.2129 134.212 11.8955 133.532 12.4111C132.853 12.9209 131.971 13.1758 130.887 13.1758C130.125 13.1758 129.451 13.041 128.865 12.7715C128.279 12.502 127.819 12.127 127.485 11.6465C127.157 11.1602 126.993 10.6357 126.993 10.0732H128.619C128.648 10.6182 128.865 11.0518 129.27 11.374C129.68 11.6904 130.219 11.8486 130.887 11.8486C131.502 11.8486 131.994 11.7256 132.363 11.4795C132.738 11.2275 132.926 10.8936 132.926 10.4775Z" fill="white"/>
</svg>
